<?xml version="1.0" standalone="no"?>
<!DOCTYPE svg PUBLIC "-//W3C//DTD SVG 20010904//EN"
 "http://www.w3.org/TR/2001/REC-SVG-20010904/DTD/svg10.dtd">
<svg version="1.0" xmlns="http://www.w3.org/2000/svg"
 width="213.000000pt" height="48.000000pt" viewBox="0 0 213.000000 48.000000"
 preserveAspectRatio="xMidYMid meet">

<g transform="translate(0.000000,48.000000) scale(0.100000,-0.100000)"
fill="#000000" stroke="none">
<path d="M16 454 c-9 -36 -2 -40 18 -9 12 19 25 25 51 25 l35 0 0 -140 c0
-136 -1 -141 -22 -150 -17 -6 -2 -9 52 -8 46 0 65 3 50 7 -25 7 -25 7 -28 149
l-3 142 34 0 c35 0 61 -15 70 -40 3 -8 6 0 6 18 l1 32 -129 0 -129 0 -6 -26z"/>
<path d="M330 335 c0 -127 -2 -145 -17 -154 -14 -8 -3 -10 42 -10 33 0 53 3
45 6 -25 10 -30 25 -30 89 0 68 20 98 62 92 22 -3 23 -8 26 -83 2 -66 0 -82
-14 -92 -15 -11 -10 -13 37 -13 41 1 50 3 37 11 -15 8 -18 24 -18 87 0 115
-38 153 -104 101 l-26 -20 0 65 c0 59 -2 66 -20 66 -19 0 -20 -7 -20 -145z"/>
<path d="M585 470 c3 -5 12 -10 20 -10 8 0 17 5 20 10 4 6 -5 10 -20 10 -15 0
-24 -4 -20 -10z"/>
<path d="M945 333 l0 -148 -29 -3 c-39 -5 -46 10 -46 99 0 61 -4 79 -18 92
-23 21 -46 21 -77 1 -23 -15 -25 -15 -25 0 0 20 -8 20 -51 1 -19 -8 -27 -14
-18 -15 18 0 29 -39 29 -99 0 -52 -10 -79 -29 -84 -9 -3 11 -5 44 -5 33 0 52
2 43 5 -15 4 -18 17 -18 84 0 74 2 80 24 91 46 20 56 7 56 -81 0 -66 -3 -82
-17 -90 -13 -8 14 -10 97 -10 83 0 110 2 98 10 -13 7 -18 23 -18 57 l1 47 35
-40 c20 -23 33 -47 30 -57 -4 -16 3 -18 47 -17 42 0 48 2 32 11 -11 5 -40 35
-64 65 l-43 55 28 30 c16 17 43 36 59 44 l30 13 -47 1 c-39 0 -45 -3 -42 -17
3 -12 -8 -28 -31 -46 l-35 -28 0 91 c0 87 -1 90 -22 90 -23 0 -23 -1 -23 -147z"/>
<path d="M1198 335 c3 -144 3 -145 -20 -154 -17 -7 -4 -10 52 -9 46 0 65 3 50
7 -23 6 -25 12 -28 79 l-3 72 40 0 c34 0 43 -5 55 -27 15 -27 15 -27 15 32 0
57 -1 59 -16 38 -11 -17 -25 -23 -54 -23 l-39 0 0 60 0 60 54 0 c48 0 57 -3
75 -27 l20 -28 1 33 0 32 -102 0 -103 0 3 -145z"/>
<path d="M1468 353 c4 -142 0 -170 -26 -176 -9 -3 10 -5 43 -6 45 0 56 2 43
10 -16 9 -18 27 -18 154 0 144 0 145 -22 145 -23 0 -23 -1 -20 -127z"/>
<path d="M575 375 c-19 -9 -24 -14 -12 -15 15 0 17 -11 17 -89 0 -77 -2 -90
-17 -94 -10 -3 9 -5 42 -5 33 0 52 2 43 5 -16 4 -18 18 -18 109 0 113 -1 114
-55 89z"/>
<path d="M1621 377 c-33 -20 -50 -55 -51 -105 0 -81 75 -126 149 -88 54 28 70
123 28 171 -27 32 -90 42 -126 22z m84 -27 c25 -28 32 -103 11 -135 -22 -33
-60 -33 -82 0 -21 33 -29 106 -15 134 15 27 61 28 86 1z"/>
<path d="M1808 373 c11 -10 34 -56 52 -103 18 -47 35 -89 38 -95 3 -5 20 22
39 60 l32 68 19 -44 c11 -24 22 -54 26 -66 4 -13 10 -23 14 -23 4 0 18 29 31
65 12 36 33 86 46 110 l22 45 -31 0 c-22 0 -27 -3 -17 -9 12 -8 10 -19 -9 -70
-12 -34 -26 -63 -29 -65 -4 -3 -17 23 -30 56 -23 59 -23 62 -6 75 17 11 11 13
-41 12 -32 -1 -52 -3 -42 -6 9 -2 21 -17 28 -32 10 -25 8 -35 -12 -76 l-24
-47 -22 59 c-25 69 -27 89 -9 96 6 3 -12 6 -42 6 -52 1 -53 0 -33 -16z"/>
</g>
</svg>
